# Exported by ZModeler 3.1.4 (Build 1142) with WavefrontOBJ filter (Build 80)
# 

v -1.29966 -1.94785 0.0317599
v -1.29966 1.94785 0.0317599
v -1.29966 1.94785 -0.0317599
v -1.29966 -1.94785 -0.0317599
v -1.29744 -1.95902 0.0317599
v -1.29744 -1.95902 -0.0317599
v -1.29308 -1.96955 0.0317599
v -1.29308 -1.96955 -0.0317599
v -1.28674 -1.97903 0.0317599
v -1.28674 -1.97903 -0.0317599
v -1.27868 -1.98709 0.0317599
v -1.27868 -1.98709 -0.0317599
v -1.26921 -1.99342 0.0317599
v -1.26921 -1.99342 -0.0317599
v -1.25868 -1.99779 0.0317599
v -1.25868 -1.99779 -0.0317599
v -1.2475 -2.00001 0.0317599
v -1.2475 -2.00001 -0.0317599
v 1.2475 -2.00001 0.0317599
v 1.2475 -2.00001 -0.0317599
v 1.25868 -1.99779 0.0317599
v 1.25868 -1.99779 -0.0317599
v 1.26921 -1.99342 0.0317599
v 1.26921 -1.99342 -0.0317599
v 1.27868 -1.98709 0.0317599
v 1.27868 -1.98709 -0.0317599
v 1.28674 -1.97903 0.0317599
v 1.28674 -1.97903 -0.0317599
v 1.29308 -1.96955 0.0317599
v 1.29308 -1.96955 -0.0317599
v 1.29744 -1.95902 0.0317599
v 1.29744 -1.95902 -0.0317599
v 1.29966 -1.94785 0.0317599
v 1.29966 -1.94785 -0.0317599
v 1.29966 1.94785 0.0317599
v 1.29966 1.94785 -0.0317599
v 1.29744 1.95902 0.0317599
v 1.29744 1.95902 -0.0317599
v 1.29308 1.96956 0.0317599
v 1.29308 1.96956 -0.0317599
v 1.28674 1.97903 0.0317599
v 1.28674 1.97903 -0.0317599
v 1.27868 1.98709 0.0317599
v 1.27868 1.98709 -0.0317599
v 1.26921 1.99342 0.0317599
v 1.26921 1.99342 -0.0317599
v 1.25868 1.99779 0.0317599
v 1.25868 1.99779 -0.0317599
v 1.2475 2.00001 0.0317599
v 1.2475 2.00001 -0.0317599
v -1.2475 2.00001 0.0317599
v -1.2475 2.00001 -0.0317599
v -1.25868 1.99779 0.0317599
v -1.25868 1.99779 -0.0317599
v -1.26921 1.99342 0.0317599
v -1.26921 1.99342 -0.0317599
v -1.27868 1.98709 0.0317599
v -1.27868 1.98709 -0.0317599
v -1.28674 1.97903 0.0317599
v -1.28674 1.97903 -0.0317599
v -1.29308 1.96956 0.0317599
v -1.29308 1.96956 -0.0317599
v -1.29744 1.95902 0.0317599
v -1.29744 1.95902 -0.0317599
v 0.000404 3.57603e-005 -0.0317599
v -1.29966 -1.94785 -0.0317599
v -1.29966 1.94785 -0.0317599
v 0.000404 3.57603e-005 0.0317599
v -1.29966 1.94785 0.0317599
v -1.29966 -1.94785 0.0317599
v -1.29744 -1.95902 -0.0317599
v -1.29744 -1.95902 0.0317599
v -1.29308 -1.96955 -0.0317599
v -1.29308 -1.96955 0.0317599
v -1.28674 -1.97903 -0.0317599
v -1.28674 -1.97903 0.0317599
v -1.27868 -1.98709 -0.0317599
v -1.27868 -1.98709 0.0317599
v -1.26921 -1.99342 -0.0317599
v -1.26921 -1.99342 0.0317599
v -1.25868 -1.99779 -0.0317599
v -1.25868 -1.99779 0.0317599
v -1.2475 -2.00001 -0.0317599
v -1.2475 -2.00001 0.0317599
v 1.2475 -2.00001 -0.0317599
v 1.2475 -2.00001 0.0317599
v 1.25868 -1.99779 -0.0317599
v 1.25868 -1.99779 0.0317599
v 1.26921 -1.99342 -0.0317599
v 1.26921 -1.99342 0.0317599
v 1.27868 -1.98709 -0.0317599
v 1.27868 -1.98709 0.0317599
v 1.28674 -1.97903 -0.0317599
v 1.28674 -1.97903 0.0317599
v 1.29308 -1.96955 -0.0317599
v 1.29308 -1.96955 0.0317599
v 1.29744 -1.95902 -0.0317599
v 1.29744 -1.95902 0.0317599
v 1.29966 -1.94785 -0.0317599
v 1.29966 -1.94785 0.0317599
v 1.29966 1.94785 -0.0317599
v 1.29966 1.94785 0.0317599
v 1.29744 1.95902 -0.0317599
v 1.29744 1.95902 0.0317599
v 1.29308 1.96956 -0.0317599
v 1.29308 1.96956 0.0317599
v 1.28674 1.97903 -0.0317599
v 1.28674 1.97903 0.0317599
v 1.27868 1.98709 -0.0317599
v 1.27868 1.98709 0.0317599
v 1.26921 1.99342 -0.0317599
v 1.26921 1.99342 0.0317599
v 1.25868 1.99779 -0.0317599
v 1.25868 1.99779 0.0317599
v 1.2475 2.00001 -0.0317599
v 1.2475 2.00001 0.0317599
v -1.2475 2.00001 -0.0317599
v -1.2475 2.00001 0.0317599
v -1.25868 1.99779 -0.0317599
v -1.25868 1.99779 0.0317599
v -1.26921 1.99342 -0.0317599
v -1.26921 1.99342 0.0317599
v -1.27868 1.98709 -0.0317599
v -1.27868 1.98709 0.0317599
v -1.28674 1.97903 -0.0317599
v -1.28674 1.97903 0.0317599
v -1.29308 1.96956 -0.0317599
v -1.29308 1.96956 0.0317599
v -1.29744 1.95902 -0.0317599
v -1.29744 1.95902 0.0317599


vn -0.995185 -0.0980171 1.81692e-010
vn -0.995185 0.0980171 0
vn -0.995185 0.0980171 0
vn -0.995185 -0.0980171 1.81692e-010
vn -0.95694 -0.290285 3.56402e-010
vn -0.95694 -0.290285 3.56402e-010
vn -0.881921 -0.471397 5.17415e-010
vn -0.881921 -0.471397 5.17415e-010
vn -0.77301 -0.634393 6.58544e-010
vn -0.77301 -0.634393 6.58544e-010
vn -0.634393 -0.77301 7.74366e-010
vn -0.634393 -0.77301 7.74366e-010
vn -0.471397 -0.881921 8.6043e-010
vn -0.471397 -0.881921 8.6043e-010
vn -0.290285 -0.95694 9.13428e-010
vn -0.290285 -0.95694 9.13428e-010
vn -0.0980171 -0.995185 9.31323e-010
vn -0.0980171 -0.995185 9.31323e-010
vn 0.0980171 -0.995185 9.13427e-010
vn 0.0980171 -0.995185 9.13427e-010
vn 0.290285 -0.95694 8.6043e-010
vn 0.290285 -0.95694 8.6043e-010
vn 0.471397 -0.881921 7.74366e-010
vn 0.471397 -0.881921 7.74366e-010
vn 0.634393 -0.77301 6.58544e-010
vn 0.634393 -0.77301 6.58544e-010
vn 0.77301 -0.634393 5.17415e-010
vn 0.77301 -0.634393 5.17415e-010
vn 0.881921 -0.471397 3.56402e-010
vn 0.881921 -0.471397 3.56402e-010
vn 0.95694 -0.290285 1.81692e-010
vn 0.95694 -0.290285 1.81692e-010
vn 0.995185 -0.0980171 -8.14188e-017
vn 0.995185 -0.0980171 -8.14188e-017
vn 0.995185 0.0980173 -1.81692e-010
vn 0.995185 0.0980173 -1.81692e-010
vn 0.95694 0.290285 -3.56402e-010
vn 0.95694 0.290285 -3.56402e-010
vn 0.881921 0.471397 -5.17415e-010
vn 0.881921 0.471397 -5.17415e-010
vn 0.77301 0.634393 -6.58545e-010
vn 0.77301 0.634393 -6.58545e-010
vn 0.634393 0.773011 -7.74367e-010
vn 0.634393 0.773011 -7.74367e-010
vn 0.471396 0.881921 -8.6043e-010
vn 0.471396 0.881921 -8.6043e-010
vn 0.290285 0.95694 -9.13427e-010
vn 0.290285 0.95694 -9.13427e-010
vn 0.0980171 0.995185 -9.31323e-010
vn 0.0980171 0.995185 -9.31323e-010
vn -0.0980172 0.995185 -9.13427e-010
vn -0.0980172 0.995185 -9.13427e-010
vn -0.290285 0.95694 -8.6043e-010
vn -0.290285 0.95694 -8.6043e-010
vn -0.471397 0.881921 -7.74366e-010
vn -0.471397 0.881921 -7.74366e-010
vn -0.634394 0.77301 -6.58544e-010
vn -0.634394 0.77301 -6.58544e-010
vn -0.77301 0.634393 -5.17415e-010
vn -0.77301 0.634393 -5.17415e-010
vn -0.881921 0.471397 -3.56402e-010
vn -0.881921 0.471397 -3.56402e-010
vn -0.95694 0.290285 -1.81692e-010
vn -0.95694 0.290285 -1.81692e-010
vn -0 0 -1
vn -0 0 -1
vn -0 0 -1
vn -0 0 1
vn -0 0 1
vn -0 0 1
vn -0 0 -1
vn -0 0 1
vn -0 0 -1
vn -0 0 1
vn -0 0 -1
vn -0 0 1
vn -0 0 -1
vn -0 0 1
vn -0 0 -1
vn -0 0 1
vn -0 0 -1
vn -0 0 1
vn -0 0 -1
vn -0 0 1
vn -0 0 -1
vn -0 0 1
vn -0 0 -1
vn -0 0 1
vn -0 0 -1
vn -0 0 1
vn -0 0 -1
vn -0 0 1
vn -0 0 -1
vn -0 0 1
vn -0 0 -1
vn -0 0 1
vn -0 0 -1
vn -0 0 1
vn -0 0 -1
vn -0 0 1
vn -0 0 -1
vn -0 0 1
vn -0 0 -1
vn -0 0 1
vn -0 0 -1
vn -0 0 1
vn -0 0 -1
vn -0 0 1
vn -0 0 -1
vn -0 0 1
vn -0 0 -1
vn -0 0 1
vn -0 0 -1
vn -0 0 1
vn -0 0 -1
vn -0 0 1
vn -0 0 -1
vn -0 0 1
vn -0 0 -1
vn -0 0 1
vn -0 0 -1
vn -0 0 1
vn -0 0 -1
vn -0 0 1
vn -0 0 -1
vn -0 0 1
vn -0 0 -1
vn -0 0 1
vn -0 0 -1
vn -0 0 1


vt 0.0147793 0.14099
vt 0.0147793 0.862617
vt 0.00301302 0.862617
vt 0.00301302 0.14099
vt 0.0147793 0.138919
vt 0.00301302 0.138919
vt 0.0147793 0.136969
vt 0.00301302 0.136969
vt 0.0147793 0.135213
vt 0.00301302 0.135213
vt 0.0185476 0.131545
vt 0.0185476 0.119779
vt 0.020303 0.131545
vt 0.020303 0.119779
vt 0.0222536 0.131545
vt 0.0222536 0.119779
vt 0.0243243 0.131545
vt 0.0243243 0.119779
vt 0.48649 0.131545
vt 0.48649 0.119779
vt 0.488561 0.131545
vt 0.488561 0.119779
vt 0.490512 0.131545
vt 0.490512 0.119779
vt 0.492267 0.131545
vt 0.492267 0.119779
vt 0.49376 0.131545
vt 0.49376 0.119779
vt 0.49611 0.137185
vt 0.507876 0.137185
vt 0.49611 0.139135
vt 0.507876 0.139135
vt 0.49611 0.141206
vt 0.507876 0.141206
vt 0.49611 0.862833
vt 0.507876 0.862833
vt 0.49611 0.864903
vt 0.507876 0.864903
vt 0.49611 0.866854
vt 0.507876 0.866854
vt 0.49611 0.868609
vt 0.507876 0.868609
vt 0.49252 0.872503
vt 0.49252 0.884269
vt 0.490765 0.872503
vt 0.490765 0.884269
vt 0.488814 0.872503
vt 0.488814 0.884269
vt 0.486744 0.872503
vt 0.486744 0.884269
vt 0.0245775 0.872503
vt 0.0245775 0.884269
vt 0.0225068 0.872503
vt 0.0225068 0.884269
vt 0.0205562 0.872503
vt 0.0205562 0.884269
vt 0.0188007 0.872503
vt 0.0188007 0.884269
vt 0.0147793 0.868394
vt 0.00301302 0.868394
vt 0.0147793 0.866638
vt 0.00301302 0.866638
vt 0.0147793 0.864688
vt 0.00301302 0.864688
vt 0.748602 0.502186
vt 0.989423 0.141366
vt 0.989423 0.862993
vt 0.255534 0.502032
vt 0.0147135 0.862839
vt 0.0147135 0.141212
vt 0.989011 0.139296
vt 0.0151254 0.139141
vt 0.988203 0.137345
vt 0.0159334 0.137191
vt 0.98703 0.135589
vt 0.0171064 0.135435
vt 0.985537 0.134096
vt 0.0185993 0.133942
vt 0.983781 0.132924
vt 0.0203548 0.132769
vt 0.981831 0.132115
vt 0.0223054 0.131961
vt 0.97976 0.131704
vt 0.0243761 0.131549
vt 0.517594 0.131704
vt 0.486542 0.131549
vt 0.515523 0.132115
vt 0.488613 0.131961
vt 0.513573 0.132924
vt 0.490563 0.132769
vt 0.511817 0.134096
vt 0.492319 0.133942
vt 0.510324 0.135589
vt 0.493812 0.135435
vt 0.509151 0.137345
vt 0.494985 0.137191
vt 0.508343 0.139296
vt 0.495793 0.139141
vt 0.507931 0.141366
vt 0.496205 0.141212
vt 0.507931 0.862993
vt 0.496205 0.862839
vt 0.508343 0.865064
vt 0.495793 0.86491
vt 0.509151 0.867014
vt 0.494985 0.86686
vt 0.510324 0.86877
vt 0.493812 0.868616
vt 0.511817 0.870263
vt 0.492319 0.870109
vt 0.513573 0.871436
vt 0.490563 0.871282
vt 0.515523 0.872244
vt 0.488613 0.87209
vt 0.517594 0.872656
vt 0.486542 0.872501
vt 0.97976 0.872656
vt 0.0243761 0.872501
vt 0.981831 0.872244
vt 0.0223054 0.87209
vt 0.983781 0.871436
vt 0.0203548 0.871282
vt 0.985537 0.870263
vt 0.0185993 0.870109
vt 0.98703 0.86877
vt 0.0171064 0.868616
vt 0.988203 0.867014
vt 0.0159334 0.86686
vt 0.989011 0.865064
vt 0.0151254 0.86491


g Cylinder

f 1/1/1 2/2/2 3/3/3 4/4/4
f 5/5/5 1/1/1 4/4/4 6/6/6
f 7/7/7 5/5/5 6/6/6 8/8/8
f 9/9/9 7/7/7 8/8/8 10/10/10
f 11/11/11 9/9/9 10/10/10 12/12/12
f 13/13/13 11/11/11 12/12/12 14/14/14
f 15/15/15 13/13/13 14/14/14 16/16/16
f 17/17/17 15/15/15 16/16/16 18/18/18
f 19/19/19 17/17/17 18/18/18 20/20/20
f 21/21/21 19/19/19 20/20/20 22/22/22
f 23/23/23 21/21/21 22/22/22 24/24/24
f 25/25/25 23/23/23 24/24/24 26/26/26
f 27/27/27 25/25/25 26/26/26 28/28/28
f 29/29/29 27/27/27 28/28/28 30/30/30
f 31/31/31 29/29/29 30/30/30 32/32/32
f 33/33/33 31/31/31 32/32/32 34/34/34
f 35/35/35 33/33/33 34/34/34 36/36/36
f 37/37/37 35/35/35 36/36/36 38/38/38
f 39/39/39 37/37/37 38/38/38 40/40/40
f 41/41/41 39/39/39 40/40/40 42/42/42
f 43/43/43 41/41/41 42/42/42 44/44/44
f 45/45/45 43/43/43 44/44/44 46/46/46
f 47/47/47 45/45/45 46/46/46 48/48/48
f 49/49/49 47/47/47 48/48/48 50/50/50
f 51/51/51 49/49/49 50/50/50 52/52/52
f 53/53/53 51/51/51 52/52/52 54/54/54
f 55/55/55 53/53/53 54/54/54 56/56/56
f 57/57/57 55/55/55 56/56/56 58/58/58
f 59/59/59 57/57/57 58/58/58 60/60/60
f 61/61/61 59/59/59 60/60/60 62/62/62
f 63/63/63 61/61/61 62/62/62 64/64/64
f 2/2/2 63/63/63 64/64/64 3/3/3
f 65/65/65 66/66/66 67/67/67
f 68/68/68 69/69/69 70/70/70
f 65/65/65 71/71/71 66/66/66
f 68/68/68 70/70/70 72/72/72
f 65/65/65 73/73/73 71/71/71
f 68/68/68 72/72/72 74/74/74
f 65/65/65 75/75/75 73/73/73
f 68/68/68 74/74/74 76/76/76
f 65/65/65 77/77/77 75/75/75
f 68/68/68 76/76/76 78/78/78
f 65/65/65 79/79/79 77/77/77
f 68/68/68 78/78/78 80/80/80
f 65/65/65 81/81/81 79/79/79
f 68/68/68 80/80/80 82/82/82
f 65/65/65 83/83/83 81/81/81
f 68/68/68 82/82/82 84/84/84
f 65/65/65 85/85/85 83/83/83
f 68/68/68 84/84/84 86/86/86
f 65/65/65 87/87/87 85/85/85
f 68/68/68 86/86/86 88/88/88
f 65/65/65 89/89/89 87/87/87
f 68/68/68 88/88/88 90/90/90
f 65/65/65 91/91/91 89/89/89
f 68/68/68 90/90/90 92/92/92
f 65/65/65 93/93/93 91/91/91
f 68/68/68 92/92/92 94/94/94
f 65/65/65 95/95/95 93/93/93
f 68/68/68 94/94/94 96/96/96
f 65/65/65 97/97/97 95/95/95
f 68/68/68 96/96/96 98/98/98
f 65/65/65 99/99/99 97/97/97
f 68/68/68 98/98/98 100/100/100
f 65/65/65 101/101/101 99/99/99
f 68/68/68 100/100/100 102/102/102
f 65/65/65 103/103/103 101/101/101
f 68/68/68 102/102/102 104/104/104
f 65/65/65 105/105/105 103/103/103
f 68/68/68 104/104/104 106/106/106
f 65/65/65 107/107/107 105/105/105
f 68/68/68 106/106/106 108/108/108
f 65/65/65 109/109/109 107/107/107
f 68/68/68 108/108/108 110/110/110
f 65/65/65 111/111/111 109/109/109
f 68/68/68 110/110/110 112/112/112
f 65/65/65 113/113/113 111/111/111
f 68/68/68 112/112/112 114/114/114
f 65/65/65 115/115/115 113/113/113
f 68/68/68 114/114/114 116/116/116
f 65/65/65 117/117/117 115/115/115
f 68/68/68 116/116/116 118/118/118
f 65/65/65 119/119/119 117/117/117
f 68/68/68 118/118/118 120/120/120
f 65/65/65 121/121/121 119/119/119
f 68/68/68 120/120/120 122/122/122
f 65/65/65 123/123/123 121/121/121
f 68/68/68 122/122/122 124/124/124
f 65/65/65 125/125/125 123/123/123
f 68/68/68 124/124/124 126/126/126
f 65/65/65 127/127/127 125/125/125
f 68/68/68 126/126/126 128/128/128
f 65/65/65 129/129/129 127/127/127
f 68/68/68 128/128/128 130/130/130
f 65/65/65 67/67/67 129/129/129
f 68/68/68 130/130/130 69/69/69
